<svg width="119" height="28" viewBox="0 0 119 28" fill="none" xmlns="http://www.w3.org/2000/svg">
<g clip-path="url(#clip0)">
<path d="M58.734 20.7413L57.6104 19.6177C56.9975 19.0048 55.8739 18.9027 55.261 19.6177C55.261 19.6177 55.0567 19.822 54.7503 20.1284C53.3202 21.5585 51.3795 22.2735 49.4387 22.2735C45.0464 22.2735 41.4713 18.4941 41.4713 13.9997C41.4713 9.50525 45.0464 5.72585 49.4387 5.72585C51.3795 5.72585 53.3202 6.44088 54.7503 7.87092L55.1589 8.2795C55.7717 8.89238 56.8953 8.89238 57.5082 8.2795L58.6318 7.1559C59.2447 6.54302 59.3468 5.41942 58.6318 4.80654L57.9168 4.09152C55.6696 1.94645 52.6052 0.720703 49.4387 0.720703C42.2885 0.720703 36.5683 6.64517 36.5683 13.9997C36.5683 21.3542 42.3906 27.2786 49.4387 27.2786C52.6052 27.2786 55.6696 26.0529 58.0189 23.9078L58.734 23.1928C59.449 22.4778 59.449 21.4563 58.734 20.7413Z" fill="#1A2834"/>
<path d="M81.8189 0.720703C75.2816 0.720703 70.4807 6.13444 70.4807 12.7739V25.5422C70.4807 26.4615 71.1957 27.2786 72.115 27.2786H73.6472C74.5665 27.2786 75.2816 26.4615 75.2816 25.5422V12.161C75.2816 8.58594 78.1417 5.62371 81.6146 5.62371H81.7168H81.8189C85.2919 5.62371 88.152 8.58594 88.152 12.161V25.6443C88.152 26.5636 88.867 27.3808 89.7863 27.3808H91.3185C92.2378 27.3808 92.9528 26.5636 92.9528 25.6443V12.7739C93.1571 6.23658 88.3563 0.720703 81.8189 0.720703Z" fill="#1A2834"/>
<path d="M67.4163 12.6718V2.35504C67.4163 1.43572 66.5991 0.720703 65.6798 0.720703H64.1476C63.2283 0.720703 62.4111 1.43572 62.4111 2.35504V17.6769V25.6443C62.4111 26.5636 63.2283 27.2786 64.1476 27.2786H65.6798C66.5991 27.2786 67.4163 26.5636 67.4163 25.6443V12.6718Z" fill="#1A2834"/>
<path d="M118.489 20.7413L117.366 19.6177C116.753 19.0048 115.629 18.9027 115.016 19.6177C115.016 19.6177 114.812 19.822 114.506 20.1284C113.076 21.5585 111.135 22.2735 109.194 22.2735C104.802 22.2735 101.227 18.4941 101.227 13.9997C101.227 9.50525 104.802 5.72585 109.194 5.72585C111.135 5.72585 113.076 6.44088 114.506 7.87092L114.914 8.2795C115.527 8.89238 116.651 8.89238 117.264 8.2795L118.387 7.1559C119 6.54302 119.102 5.41942 118.387 4.80654L117.672 4.09152C115.425 1.94645 112.361 0.720703 109.194 0.720703C102.044 0.720703 96.3236 6.64517 96.3236 13.9997C96.3236 21.3542 102.146 27.2786 109.194 27.2786C112.361 27.2786 115.425 26.0529 117.774 23.9078L118.489 23.1928C119.204 22.4778 119.204 21.4563 118.489 20.7413Z" fill="#1A2834"/>
<path d="M22.9828 27.2787H21.1442C20.0206 27.2787 19.1013 26.3594 19.1013 25.2358V12.1611C19.1013 11.0375 20.0206 10.1182 21.1442 10.1182H22.9828C24.1064 10.1182 25.0257 11.0375 25.0257 12.1611V25.2358C25.0257 26.3594 24.1064 27.2787 22.9828 27.2787Z" fill="#3796B9"/>
<path d="M13.4833 27.2782H11.6447C10.5211 27.2782 9.60175 26.3589 9.60175 25.2353V17.8808C9.60175 16.7572 10.5211 15.8379 11.6447 15.8379H13.4833C14.6069 15.8379 15.5262 16.7572 15.5262 17.8808V25.2353C15.5262 26.3589 14.6069 27.2782 13.4833 27.2782Z" fill="#00A5AB"/>
<path d="M3.98369 27.279H2.04292C0.919313 27.279 0 26.3596 0 25.236V23.3974C0 22.2738 0.919313 21.3545 2.04292 21.3545H3.88155C5.00515 21.3545 5.92446 22.2738 5.92446 23.3974V25.236C6.02661 26.3596 5.1073 27.279 3.98369 27.279Z" fill="#1EAF92"/>
<path d="M2.04292 0.823242H3.88155C5.00515 0.823242 5.92446 1.74256 5.92446 2.86616V15.8387C5.92446 16.9623 5.00515 17.8816 3.88155 17.8816H2.04292C0.919313 17.8816 0 16.9623 0 15.8387V2.96831C0 1.74256 0.919313 0.823242 2.04292 0.823242Z" fill="#D5D5D5"/>
<path d="M11.5426 0.823242H13.3812C14.5048 0.823242 15.4241 1.74256 15.4241 2.86616V10.2207C15.4241 11.3443 14.5048 12.2636 13.3812 12.2636H11.5426C10.4189 12.2636 9.49963 11.3443 9.49963 10.2207V2.96831C9.49963 1.74256 10.4189 0.823242 11.5426 0.823242Z" fill="#D5D5D5"/>
<path d="M21.0421 0.823242H22.8807C24.0043 0.823242 24.9236 1.74256 24.9236 2.86616V4.80693C24.9236 5.93054 24.0043 6.84985 22.8807 6.84985H21.0421C19.9185 6.84985 18.9991 5.93054 18.9991 4.80693V2.96831C18.9991 1.74256 19.9185 0.823242 21.0421 0.823242Z" fill="#D5D5D5"/>
</g>
<defs>
<clipPath id="clip0">
<rect width="119" height="26.5579" fill="white" transform="translate(0 0.720703)"/>
</clipPath>
</defs>
</svg>
