<svg width="136" height="40" viewBox="0 0 136 40" fill="none" xmlns="http://www.w3.org/2000/svg">
<path fill-rule="evenodd" clip-rule="evenodd" d="M102.642 10.1621V5.01904C102.642 4.78417 102.837 4.59145 103.074 4.59145H107.582C107.819 4.59145 108.017 4.78417 108.017 5.01904V10.1621H113.535C113.773 10.1621 113.968 10.3549 113.968 10.5897V14.1008C113.968 14.3356 113.773 14.5284 113.535 14.5284H108.017V22.1978C108.017 22.8995 108.026 23.6011 108.048 24.3027C108.06 24.7363 108.136 25.203 108.367 25.5794C108.778 26.2539 109.414 26.549 110.193 26.6183C111.277 26.7146 112.397 26.6303 113.472 26.4737C113.599 26.4557 113.718 26.4888 113.819 26.5731C113.916 26.6574 113.968 26.7688 113.968 26.8983V30.6502C113.968 30.858 113.822 31.0327 113.615 31.0718C112.288 31.3157 110.942 31.4331 109.594 31.4C108.355 31.3699 107.122 31.1531 105.981 30.6593C104.882 30.1835 104.033 29.4277 103.464 28.3828C102.983 27.4975 102.709 26.543 102.678 25.5342C102.651 24.5104 102.642 23.4836 102.642 22.4568V14.5314C99.7167 14.5314 97.1507 14.5314 94.1769 14.5314V30.6532C94.1769 30.8881 93.9821 31.0838 93.7447 31.0838H89.2186C88.9812 31.0838 88.7864 30.8911 88.7864 30.6532V14.5314H85.9526C85.7152 14.5314 85.5204 14.3387 85.5204 14.1038V10.5897C85.5204 10.3549 85.7152 10.1621 85.9526 10.1621H88.7864C88.7894 9.62916 88.8107 9.09618 88.8442 8.56622C88.8838 7.9158 88.9995 7.27442 89.179 6.64809C89.3769 5.95853 89.7452 5.35328 90.2322 4.82332C90.8014 4.20602 91.4771 3.68509 92.2746 3.39601C92.9533 3.15211 93.6565 2.99553 94.3809 2.9624C94.9562 2.9353 95.5345 2.91724 96.1098 2.91724H98.6452C98.8827 2.91724 99.0774 3.10995 99.0774 3.34482V6.98534C99.0774 7.22022 98.8827 7.41293 98.6452 7.41293H96.2985C95.7415 7.41293 95.0962 7.50628 94.6883 7.92182C94.3139 8.30123 94.18 8.78603 94.18 9.30697V10.1591C97.1538 10.1621 99.7197 10.1621 102.642 10.1621ZM49.5458 26.0251H61.0544C61.2918 26.0251 61.4866 26.2178 61.4866 26.4526V30.6502C61.4866 30.8851 61.2918 31.0808 61.0544 31.0808H44.5875C44.3501 31.0808 44.1553 30.8881 44.1553 30.6502V3.9049C44.1553 3.67003 44.3501 3.47732 44.5875 3.47732H49.1136C49.351 3.47732 49.5458 3.67003 49.5458 3.9049V26.0251ZM73.2022 31.6379C71.245 31.6379 69.3518 31.2284 67.6655 30.2196C66.0645 29.2651 64.847 27.9462 63.9856 26.3021C63.0603 24.5345 62.6859 22.5983 62.6859 20.62C62.6859 18.6236 63.0603 16.6573 64.013 14.8837C64.8865 13.2546 66.1193 11.9448 67.7234 11.0023C69.3974 10.0176 71.2633 9.60508 73.2022 9.60508C75.1654 9.60508 77.0647 10.0116 78.7601 11.0233C80.3612 11.9779 81.5848 13.2908 82.4492 14.9319C83.3806 16.6994 83.758 18.6416 83.758 20.623C83.758 22.6104 83.3837 24.5556 82.4431 26.3262C81.5756 27.9613 80.3429 29.2771 78.7388 30.2287C77.0495 31.2284 75.1593 31.6379 73.2022 31.6379ZM122.883 30.5208L114.747 10.7523C114.692 10.6168 114.704 10.4723 114.79 10.3518C114.872 10.2284 115 10.1621 115.149 10.1621H119.864C120.046 10.1621 120.201 10.2675 120.268 10.4362L125.522 23.7546L130.632 10.4392C130.696 10.2705 130.855 10.1621 131.037 10.1621H135.563C135.709 10.1621 135.837 10.2284 135.923 10.3488C136.005 10.4693 136.023 10.6108 135.968 10.7463L124.664 39.7259C124.597 39.8946 124.441 40 124.259 40H120.016C119.87 40 119.745 39.9367 119.66 39.8163C119.574 39.6988 119.556 39.5603 119.608 39.4248L122.883 30.5208ZM73.2022 26.5821C74.6632 26.5821 75.9872 26.1756 76.8699 24.9742C77.8013 23.7125 78.0996 22.1557 78.0996 20.62C78.0996 19.0843 77.8135 17.4733 76.8547 16.2237C75.9568 15.0553 74.6449 14.6609 73.1991 14.6609C72.2373 14.6609 71.2572 14.8355 70.4536 15.3896C69.7079 15.9015 69.1965 16.6031 68.8709 17.4402C68.4782 18.4459 68.3382 19.548 68.3382 20.623C68.3382 22.1617 68.6304 23.7637 69.5953 25.0133C70.4902 26.1696 71.7686 26.5821 73.2022 26.5821Z" fill="white"/>
<path fill-rule="evenodd" clip-rule="evenodd" d="M13.4112 22.0918C15.8184 19.9748 18.2282 17.8579 20.6354 15.7409C21.1933 15.2512 22.1049 15.2512 22.6628 15.7409C26.7071 19.2913 31.1888 23.2268 35.2332 26.7771C36.0844 27.527 35.7308 28.2513 35.1729 28.7436C32.75 30.8733 30.1935 33.1203 27.7679 35.25C27.1838 35.7627 26.2985 35.8239 25.6908 35.2908C22.1756 32.2021 18.6604 29.1134 15.1478 26.0222C14.5349 25.4814 13.5867 25.4968 13.0314 25.9865C9.50308 29.0879 5.97478 32.1868 2.44911 35.2883C1.54281 36.0866 0 35.5229 0 34.4007C0 26.1522 0 17.9063 0 9.65788C0 9.311 0.141446 9.01259 0.419099 8.76774C3.60425 5.96979 6.78941 3.16929 9.97456 0.371348C10.8782 -0.421871 12.4211 0.139248 12.4211 1.26149C12.4211 8.08164 12.4211 14.9018 12.4211 21.7219C12.4184 22.2066 13.068 22.3927 13.4112 22.0918Z" fill="white"/>
</svg>
